<svg width="147" height="30" viewBox="0 0 147 30" fill="none" xmlns="http://www.w3.org/2000/svg">
<g clip-path="url(#clip0_29_55)">
<path d="M21.1175 0H0V9.1197H17.5492L0 20.4517V29.5714H9.41659L21.1175 12.5741V29.5714H30.534V9.1197V0H21.1175Z" fill="#FF1C24"/>
<path d="M35.1765 29.5633V0.32373H58.9126V7.69965H43.7737V12.4997H58.2261V19.8318H43.7737V29.5646H35.1752L35.1765 29.5633Z" fill="white"/>
<path d="M60.6501 18.2606V0.32373H69.2487V17.824C69.2487 21.0965 70.0722 22.0135 74.4626 22.0135C78.853 22.0135 79.6765 21.0965 79.6765 17.824V0.32373H88.2751V18.2606C88.2751 25.3737 83.9299 29.9999 74.4626 29.9999C64.9953 29.9999 60.6501 25.3737 60.6501 18.2606Z" fill="white"/>
<path d="M98.977 29.5633V7.69832H89.5549V0.32373H116.996V7.69965H107.574V29.5646H98.9756L98.977 29.5633Z" fill="white"/>
<path d="M118.506 29.5633V0.32373H133.919C141.649 0.32373 145.308 3.46626 145.308 9.31338C145.308 13.9396 143.433 16.8194 138.264 17.3873V17.7802C141.375 18.5658 142.61 20.4423 143.799 22.9306L147 29.5646H136.985L133.966 23.4986C132.685 20.9678 132.091 20.226 129.21 20.226H127.106V29.566H118.508L118.506 29.5633ZM127.105 13.4154H133.599C136.023 13.4154 136.709 12.7611 136.709 10.448C136.709 8.31011 136.023 7.69832 133.599 7.69832H127.105V13.4154Z" fill="white"/>
</g>
<defs>
<clipPath id="clip0_29_55">
<rect width="147" height="30" fill="white"/>
</clipPath>
</defs>
</svg>
